<?xml version="1.0" encoding="utf-8"?>
<!-- Generator: Adobe Illustrator 18.1.1, SVG Export Plug-In . SVG Version: 6.00 Build 0)  -->
<svg version="1.1" id="Layer_1" xmlns="http://www.w3.org/2000/svg" xmlns:xlink="http://www.w3.org/1999/xlink" x="0px" y="0px"
	 viewBox="0 0 142.3 126.6" enable-background="new 0 0 142.3 126.6" xml:space="preserve">
<g>
	<path fill="#32435C" d="M70.5,125.9c-34.6,0-62.7-28.1-62.7-62.7c0-34.6,28.1-62.7,62.7-62.7c34.6,0,62.7,28.1,62.7,62.7
		C133.2,97.7,105,125.9,70.5,125.9z M70.5,12.1c-28.2,0-51.1,22.9-51.1,51.1c0,28.1,22.9,51.1,51.1,51.1c28.2,0,51.1-22.9,51.1-51.1
		C121.5,35,98.6,12.1,70.5,12.1z"/>
	<g>
		<path fill="#32435C" d="M59.8,63.2L41.1,44.5l10.6-10.6l18.7,18.7l18.9-18.9l10.6,10.6L81,63.2l18.7,18.7L89.1,92.5L70.4,73.8
			L51.8,92.4L41.2,81.8L59.8,63.2z"/>
	</g>
</g>
</svg>
