<?xml version="1.0" encoding="utf-8"?>
<!-- Generator: Adobe Illustrator 21.1.0, SVG Export Plug-In . SVG Version: 6.00 Build 0)  -->
<svg version="1.1" id="Layer_1" xmlns="http://www.w3.org/2000/svg" xmlns:xlink="http://www.w3.org/1999/xlink" x="0px" y="0px"
	 viewBox="0 0 100.5 90" enable-background="new 0 0 100.5 90" xml:space="preserve">
<path fill="#265B85" d="M83.5,39c-1.2,0-2.4-0.6-3.2-1.6c-6.6-8.8-15.7-12.5-30.6-12.5s-24,3.7-30.6,12.5c-1.3,1.8-3.8,2.1-5.6,0.8
	c-1.8-1.3-2.1-3.8-0.8-5.6c8.1-10.9,19.5-15.7,37-15.7s28.9,4.9,37,15.7c1.3,1.8,1,4.3-0.8,5.6C85.2,38.8,84.4,39,83.5,39z"/>
<path fill="#265B85" d="M74.5,52.5c-1.2,0-2.4-0.6-3.2-1.6c-4.6-6.1-11-8.8-21.6-8.8s-17,2.6-21.6,8.8c-1.3,1.8-3.8,2.1-5.6,0.8
	c-1.8-1.3-2.1-3.8-0.8-5.6c6.2-8.3,14.8-12,28-12s21.8,3.7,28,12c1.3,1.8,1,4.3-0.8,5.6C76.2,52.2,75.3,52.5,74.5,52.5z"/>
<path fill="#265B85" d="M66,66.1c-1.2,0-2.4-0.6-3.2-1.6c-2-2.7-5-5.2-13-5.2s-11,2.5-13,5.2c-1.3,1.8-3.8,2.1-5.6,0.8
	c-1.8-1.3-2.1-3.8-0.8-5.6c4.3-5.7,10.4-8.4,19.4-8.4s15.1,2.7,19.4,8.4c1.3,1.8,1,4.3-0.8,5.6C67.6,65.8,66.8,66.1,66,66.1z"/>
<circle fill="#265B85" cx="49.8" cy="74" r="7"/>
</svg>
